<?xml version="1.0" encoding="UTF-8" standalone="no"?>
<!-- Created with Inkscape (http://www.inkscape.org/) -->

<svg
   width="210mm"
   height="297mm"
   viewBox="0 0 210 297"
   version="1.1"
   id="svg5"
   inkscape:version="1.1.1 (3bf5ae0d25, 2021-09-20)"
   sodipodi:docname="drawing-4.svg"
   xmlns:inkscape="http://www.inkscape.org/namespaces/inkscape"
   xmlns:sodipodi="http://sodipodi.sourceforge.net/DTD/sodipodi-0.dtd"
   xmlns="http://www.w3.org/2000/svg"
   xmlns:svg="http://www.w3.org/2000/svg">
  <sodipodi:namedview
     id="namedview7"
     pagecolor="#ffffff"
     bordercolor="#666666"
     borderopacity="1.0"
     inkscape:pageshadow="2"
     inkscape:pageopacity="0.0"
     inkscape:pagecheckerboard="0"
     inkscape:document-units="mm"
     showgrid="false"
     inkscape:zoom="0.37059484"
     inkscape:cx="447.92853"
     inkscape:cy="913.39643"
     inkscape:window-width="1284"
     inkscape:window-height="1041"
     inkscape:window-x="2183"
     inkscape:window-y="50"
     inkscape:window-maximized="0"
     inkscape:current-layer="layer1" />
  <defs
     id="defs2">
    <filter
       style="color-interpolation-filters:sRGB;"
       inkscape:label="Extract Channel"
       id="filter2474"
       x="0"
       y="0"
       width="1"
       height="1">
      <feColorMatrix
         in="SourceGraphic"
         values="0 0 0 0 1 0 0 0 0 0 0 0 0 0 0 1 0 0 0 0 0 "
         result="colormatrix"
         id="feColorMatrix2470" />
      <feBlend
         in2="BackgroundImage"
         mode="multiply"
         result="blend"
         id="feBlend2472" />
    </filter>
  </defs>
  <g
     inkscape:label="Layer 1"
     inkscape:groupmode="layer"
     id="layer1">
    <path
       style="fill:#232422;stroke:none;stroke-width:0.276426"
       d="M 7.0213133,-41.668004 V 312.1568 H 206.04776 V -41.668004 H 104.32313 78.062698 c -2.540901,0 -7.903834,-0.998297 -9.951322,0.552852 l -4.975661,-0.552852 H 51.525844 7.0213133 M 119.80297,109.81324 c 2.06379,0.0426 4.23069,0.5523 6.08136,1.48634 0.97883,0.49425 1.94382,1.68122 3.04069,1.83353 2.54504,0.35355 3.99213,-3.04013 6.91063,-2.202 2.4859,0.714 7.86321,4.28376 10.18656,2.12128 1.54052,-1.43382 0.2134,-3.28559 -1.34204,-3.99158 -4.68818,-2.1282 -11.3669,-1.83657 -12.80266,-8.09319 -1.21682,-5.302121 2.69847,-7.189832 4.56213,-11.337598 1.00813,-2.24347 1.04876,-5.059695 1.45123,-7.459345 0.81961,-4.887483 1.70998,-9.762525 2.52958,-14.650559 0.46356,-2.763979 0.45803,-7.091975 2.90468,-8.941815 2.6617,-2.01238 7.68684,-1.173981 10.75461,-0.812139 7.90025,0.932383 15.30375,1.189736 22.94333,4.001537 2.73412,1.006189 5.82097,1.563187 7.34822,4.370289 1.48275,2.725557 0.44587,6.421644 0.0307,9.281267 -1.05457,7.266124 -2.9843,14.427206 -3.93631,21.678403 -0.41767,3.18083 2.60697,5.26149 1.42581,8.5692 -1.37964,3.86276 -7.20642,9.46675 -11.50263,9.26854 -2.28382,-0.10531 -4.65998,-1.14522 -6.91063,-1.58281 -0.74331,-0.14456 -2.11051,-0.56888 -2.47899,0.3964 -1.02084,2.67248 3.14931,6.91091 4.51348,8.77983 2.81318,3.85447 3.65517,8.51667 1.91563,12.992 -3.49071,8.98107 -12.91351,9.20663 -20.81209,10.59512 -2.33524,0.41049 -3.99296,2.44443 -6.35779,2.85879 -5.45443,0.95616 -8.69248,-4.59502 -9.39847,-9.30753 -2.7919,0.50393 -4.98313,2.92902 -7.46349,4.20002 -0.94704,0.48512 -2.47373,0.91994 -2.61858,2.16883 -0.28941,2.49585 1.71992,5.61808 1.78515,8.28172 0.0379,1.54024 -1.26298,5.96776 -0.28665,7.09197 1.05291,1.21241 4.11128,0.64131 5.54289,0.64823 2.86764,0.0138 5.92021,0.91469 8.29277,2.54864 5.66147,3.89843 6.70885,10.43479 6.63311,16.80087 -0.0196,1.66436 -1.01144,4.01259 -0.49564,5.59541 0.43482,1.33458 2.23436,1.77825 3.23529,2.58955 1.80866,1.46534 2.5152,4.25143 1.76636,6.4656 -0.71483,2.11327 -2.84663,3.6115 -5.05776,3.55788 -1.57286,-0.0382 -3.59906,-1.11069 -4.62322,0.60481 -3.26403,5.46687 5.59099,8.84037 1.68952,14.91068 -3.57308,5.55892 -9.88664,10.11331 -15.31038,13.72923 -12.36812,8.2466 -26.76602,14.99692 -41.187419,18.75631 -6.355032,1.65855 -13.81437,1.85481 -19.89712,4.13532 -1.982523,0.74359 -0.968593,4.18509 -1.430781,5.94868 -1.256076,4.79046 -4.954371,8.63831 -10.184622,8.34806 -6.871113,-0.38147 -10.063278,-8.42546 -7.453814,-14.15299 1.127814,-2.47678 3.439004,-4.72965 6.071685,-5.51746 1.562358,-0.4644 4.150258,0.0277 5.190994,-1.47059 1.722966,-2.47401 2.662535,-6.00673 3.892628,-8.76822 2.808765,-6.30693 5.494509,-12.75068 8.845621,-18.79694 2.263925,-4.08446 4.672976,-8.04039 7.319753,-11.8863 1.535819,-2.23159 3.684748,-4.52149 4.428613,-7.18707 0.990157,-3.54875 -0.535718,-7.814 0.417681,-11.60987 1.593035,-6.34232 5.418213,-11.05702 12.19783,-11.05702 -0.14623,-1.15768 -0.04811,-3.14048 -0.971359,-3.97971 -0.991536,-0.90142 -3.042895,-0.64103 -4.28073,-0.7668 -2.18238,-0.2217 -4.371671,-0.98739 -5.870998,-2.65009 -2.431445,-2.69571 -3.132739,-6.83048 -3.734794,-10.29465 -0.266194,-1.53195 -0.259283,-3.60818 -1.177014,-4.91761 -1.499315,-2.13843 -5.329195,-3.31048 -7.461262,-4.81507 -3.681159,-2.59784 -6.291171,-6.06975 -8.075772,-10.16996 -2.221362,-5.1031 -3.005299,-11.07113 -3.246897,-16.58554 -0.132133,-3.01746 0.48347,-7.40158 -0.636611,-10.21255 -0.713454,-1.79041 -3.629466,-1.98225 -5.179106,-2.77836 -2.673866,-1.37355 -4.183701,-4.26552 -4.397936,-7.18817 -0.322313,-4.396545 1.181997,-7.244282 4.397936,-10.202036 1.813076,-1.667123 5.644053,-2.889754 4.198627,-5.830646 C 52.131488,77.901283 45.58601,71.821854 39.363111,66.762988 34.284567,62.634295 28.459894,59.20413 29.182305,51.763858 c 0.442857,-4.5613 3.586841,-8.022701 6.097724,-11.609876 1.733747,-2.476774 3.053402,-5.154786 5.030675,-7.463493 5.841426,-6.820526 18.601505,-14.820283 28.077099,-11.296686 1.049316,0.390037 1.970919,1.102109 2.735235,1.909272 5.843636,6.170649 -2.374777,12.302046 -6.277631,16.345047 -1.159878,1.201346 -1.696975,2.716435 -1.324349,4.375818 0.641861,2.8599 3.973618,4.803172 6.525302,5.709848 4.788239,1.7014 9.598881,4.096627 12.862632,8.111434 3.36991,4.145002 4.558536,10.06438 10.357115,11.669031 4.685967,1.296989 7.974603,-2.277195 8.526073,-6.69337 0.75049,-6.009217 1.64141,-12.085329 3.11891,-17.967666 0.74054,-2.948908 1.83381,-5.921867 4.94056,-7.076772 2.43613,-0.905571 5.19513,-0.770951 7.73881,-0.983523 8.01302,-0.669503 15.74216,0.204002 23.49728,2.262267 3.87742,1.029409 9.29121,3.61233 9.0463,8.285859 -0.0583,1.115377 -0.56667,2.277194 -0.94565,3.317108 -0.70571,1.935255 -1.84265,4.129798 -3.95427,4.795155 -4.33988,1.367478 -10.86656,-2.469587 -13.36324,3.221187 -0.98297,2.240154 0.54041,5.731132 0.97854,8.016343 0.79197,4.132011 0.86135,8.83788 0.13324,12.992004 -0.56087,3.200457 -1.53057,6.236716 -3.02326,9.122046 -0.74912,1.447365 -2.06242,2.854095 -2.51962,4.42281 -0.64269,2.204771 1.81418,3.931326 0.50143,6.357789 -2.06904,3.82518 -6.27072,6.30306 -8.13824,10.22775 m 34.27677,-45.057378 c -0.35299,2.450513 3.78095,6.341203 5.24518,8.245776 0.58989,0.767082 1.40977,2.061029 2.49584,2.086737 1.66796,0.03925 4.22932,-2.607799 5.52742,-3.568102 1.51038,-1.117036 3.93657,-2.166071 3.86995,-4.27658 l -17.13839,-2.487831 m -7.46349,6.910641 c -1.32712,3.920544 -1.43023,8.376802 -2.2114,12.439153 -0.16116,0.838675 -1.00951,3.536589 -0.10864,4.10879 0.7563,0.480428 2.00713,-0.541241 2.59647,-0.935148 1.80368,-1.206045 6.62868,-3.544606 7.28049,-5.686351 0.34415,-1.131134 -0.88981,-2.218868 -1.50762,-3.015804 -1.71854,-2.21721 -3.4614,-5.678335 -6.0493,-6.91064 m 28.47184,20.17907 3.04068,-16.309111 c -3.1659,-1.157118 -6.70083,2.80793 -9.12205,4.539185 -0.89727,0.641583 -2.5807,1.460632 -2.81069,2.652027 -0.21312,1.103767 1.08607,2.265308 1.70527,3.036536 1.89794,2.364268 3.85973,6.042111 7.18679,6.081363 M 15.866934,79.959271 l -0.27642,0.276426 0.27642,-0.276426 M 148.2748,96.268383 c 3.92774,1.668229 9.04769,1.895727 13.26843,2.235178 1.00288,0.08044 3.79533,0.878204 4.35316,-0.388102 0.34857,-0.791406 -0.54401,-1.794831 -0.944,-2.399927 -1.03411,-1.56374 -3.62643,-6.881616 -5.63162,-7.036138 -1.0753,-0.08293 -2.20671,1.037149 -3.02963,1.601887 -2.44387,1.67735 -6.46337,3.435694 -8.01634,5.987102 M 102.11173,210.86285 c -5.538188,1.45261 -2.285492,6.15654 -2.269179,9.52065 0.01434,2.99424 -3.035983,6.75086 1.992749,7.16135 0.59045,0.0481 1.31965,0.10615 1.89518,-0.0622 1.77824,-0.52051 0.97523,-4.00956 1.53913,-5.39362 0.64933,-1.5936 2.249,-2.49613 2.82314,-4.19338 1.34121,-3.96588 -1.56816,-8.19022 -5.98102,-7.03282 m 96.25389,63.12511 c 0.71704,-0.13545 0.93929,1.01724 0.20676,1.14993 -0.7035,0.12715 -0.88871,-1.02001 -0.20676,-1.14993 m -7.24484,4.44492 v 0.27643 h -0.82928 l 0.82928,-0.27643 m -8.01635,6.63422 -0.27642,0.27642 0.27642,-0.27642 m -5.52851,0.92049 c 0.21368,0 0.0442,0.13822 -0.0921,0.094 l 0.0921,-0.094 m 2.48783,9.8601 v 0.27643 l -1.93498,0.27643 1.93498,-0.55286 m 3.31711,0 v 0.27643 h -1.93498 l 1.93498,-0.27643 m -4.97566,1.65856 v 0.27643 h -0.82928 l 0.82928,-0.27643 m 3.3171,0.82927 -0.27642,0.27643 0.27642,-0.27643 m 12.99201,3.86996 v 0.27643 h -1.1057 l 1.1057,-0.27643 m -3.31711,0.27643 -0.27642,0.27643 0.27642,-0.27643 m 13.26843,0.0912 c 0.21367,0 0.0442,0.13822 -0.0921,0.094 l 0.0921,-0.094 m -19.90264,1.29091 v 0.27643 h -1.10571 l 1.10571,-0.27643 m -2.48783,0.36764 0.092,0.094 c -0.13627,0.0442 -0.30572,-0.094 -0.092,-0.094 m -4.97566,1.01449 -0.27643,0.27643 0.27643,-0.27643 m 0.55284,0.0912 c 0.21368,0 0.0442,0.13821 -0.092,0.094 l 0.092,-0.094 m 4.14639,-0.0912 -1.1057,0.55284 1.1057,-0.55284 m 0.55285,0.0912 c 0.21368,0 0.0442,0.13821 -0.0921,0.094 l 0.0921,-0.094 m -3.04068,0.18521 v 0.27641 h -0.82927 l 0.82927,-0.27641 m 0.82927,0.0912 c 0.21368,0 0.0443,0.13821 -0.092,0.094 l 0.092,-0.094 m -3.86995,1.01449 -0.27642,0.27642 z"
       id="path2532" />
  </g>
</svg>
