<?xml version="1.0" encoding="UTF-8" standalone="no"?>
<!-- Created with Inkscape (http://www.inkscape.org/) -->

<svg
   width="210mm"
   height="297mm"
   viewBox="0 0 210 297"
   version="1.1"
   id="svg69"
   inkscape:version="1.1.1 (3bf5ae0d25, 2021-09-20)"
   sodipodi:docname="deer.svg"
   xmlns:inkscape="http://www.inkscape.org/namespaces/inkscape"
   xmlns:sodipodi="http://sodipodi.sourceforge.net/DTD/sodipodi-0.dtd"
   xmlns="http://www.w3.org/2000/svg"
   xmlns:svg="http://www.w3.org/2000/svg">
  <sodipodi:namedview
     id="namedview71"
     pagecolor="#ffffff"
     bordercolor="#666666"
     borderopacity="1.0"
     inkscape:pageshadow="2"
     inkscape:pageopacity="0.0"
     inkscape:pagecheckerboard="0"
     inkscape:document-units="mm"
     showgrid="false"
     inkscape:zoom="0.74118967"
     inkscape:cx="304.9152"
     inkscape:cy="346.06527"
     inkscape:window-width="1920"
     inkscape:window-height="1057"
     inkscape:window-x="-8"
     inkscape:window-y="-8"
     inkscape:window-maximized="1"
     inkscape:current-layer="layer1" />
  <defs
     id="defs66" />
  <g
     inkscape:label="Layer 1"
     inkscape:groupmode="layer"
     id="layer1">
    <path
       style="fill:#000000;stroke-width:0.352778"
       d="m -13.840144,359.68632 c 0,-15.68104 0.0631,-17.78 0.529167,-17.60114 0.291041,0.11169 0.529166,0.0272 0.529166,-0.18747 0,-0.21481 -0.238125,-0.39052 -0.529166,-0.39052 -0.352009,0 -0.515467,-0.32481 -0.488244,-0.97014 0.02518,-0.59687 0.102998,-0.73262 0.202256,-0.35278 0.08873,0.33955 0.484177,0.61736 0.878765,0.61736 0.500968,0 0.654549,0.16387 0.509019,0.5431 -0.114626,0.29873 -0.07091,0.81467 0.09715,1.14653 0.168059,0.33189 0.446244,1.07968 0.61819,1.66176 0.275478,0.93257 0.490021,1.07121 1.8053859,1.16681 0.821016,0.0597 1.492756,0.25809 1.492756,0.44097 0,0.18288 -0.15875,0.3325 -0.352777,0.3325 -0.194028,0 -0.352778,0.39687 -0.352778,0.88194 0,0.78299 0.148431,0.88255 1.322917,0.88734 1.705826,0.007 2.293055,0.40086 2.293055,1.53804 0,0.50497 0.387675,1.33647 0.861501,1.84771 l 0.861501,0.92957 -1.258376,-0.23604 c -1.531761,-0.28737 -1.653004,0.0478 -0.200461,0.55414 1.166288,0.40658 1.102991,0.99928 -0.108596,1.01685 -0.71767,0.0106 -0.728792,0.0447 -0.155569,0.47985 0.74555,0.56596 0.796086,1.39089 0.119602,1.9523 -0.552831,0.45883 -1.118266,-0.0625 -0.736963,-0.67948 0.119916,-0.19403 0.03224,-0.35278 -0.19483,-0.35278 -0.650373,0 -0.03828,2.5139 0.786196,3.22894 0.389727,0.338 0.876865,0.67067 1.082532,0.73921 0.205666,0.0686 0.407071,0.43409 0.447566,0.81227 0.0405,0.37822 0.187109,0.95261 0.325806,1.27649 0.149656,0.34947 -0.0027,0.9778 -0.374689,1.54559 -0.620122,0.94644 -0.618536,0.95406 0.147362,0.71099 0.610978,-0.19392 0.729546,-0.12929 0.562316,0.3065 -0.122469,0.31915 -0.02627,0.55223 0.227912,0.55223 0.241904,0 0.633924,0.26543 0.871156,0.58988 0.396434,0.54215 0.484413,0.5279 1.087432,-0.17639 0.669712,-0.78217 1.910408,-1.05071 1.910408,-0.41349 0,0.19403 0.47625,0.35278 1.058333,0.35278 0.582083,0 1.058333,0.15875 1.058333,0.35278 0,0.19403 -0.3175,0.35278 -0.705555,0.35278 -0.399162,0 -0.705556,0.23519 -0.705556,0.54158 0,0.43477 -0.141117,0.46606 -0.715436,0.15868 -0.39349,-0.21057 -0.615695,-0.57337 -0.493789,-0.80617 0.121907,-0.23279 -0.28614,0.13208 -0.90677,0.81083 -0.960871,1.05085 -1.102058,1.43058 -0.950891,2.55764 0.172782,1.28817 -0.06068,1.54562 -1.241946,1.36955 -0.138538,-0.0208 -0.161241,0.19869 -0.05045,0.4874 0.11079,0.28871 0.01436,0.52493 -0.214283,0.52493 -0.519255,0 -1.423656,0.88043 -1.423656,1.38592 0,0.2079 -0.256143,0.37797 -0.569207,0.37797 -0.429097,0 -0.531768,0.25509 -0.417107,1.03632 0.131946,0.89902 0.06998,0.99236 -0.467717,0.7046 -0.398832,-0.21346 -0.699029,-0.20355 -0.841991,0.0279 -0.122197,0.19774 -0.337848,0.28801 -0.479226,0.20063 -0.550831,-0.34043 -1.20771,0.42986 -0.922598,1.0819 0.157036,0.35912 0.301662,0.73233 0.321391,0.82934 0.01973,0.097 0.161871,0.37483 0.315871,0.61736 0.216873,0.34156 -0.480291,0.44098 -3.0922069,0.44098 l -3.372209,-1.1e-4 z m 5.1961229,16.17994 c -0.117225,-0.11723 -0.421496,-0.12975 -0.676158,-0.0279 -0.281422,0.11261 -0.197829,0.19622 0.213137,0.21315 0.371886,0.0152 0.580246,-0.0681 0.463021,-0.18531 z m 2.917766,-2.41187 c 0,-0.0856 -0.15875,-0.25368 -0.352778,-0.37359 -0.194028,-0.11991 -0.352778,-0.0499 -0.352778,0.15557 0,0.20546 0.15875,0.37359 0.352778,0.37359 0.194028,0 0.352778,-0.07 0.352778,-0.15557 z m -0.529167,-23.83332 c 0.119916,-0.19402 -0.118209,-0.35277 -0.529166,-0.35277 -0.410958,0 -0.649083,0.15875 -0.529167,0.35277 0.119916,0.19403 0.358041,0.35278 0.529167,0.35278 0.171125,0 0.40925,-0.15875 0.529166,-0.35278 z m -2.998611,-1.2139 c 0,-0.0856 -0.15875,-0.25369 -0.352778,-0.3736 -0.194027,-0.1199 -0.352777,-0.0499 -0.352777,0.15558 0,0.20546 0.15875,0.37359 0.352777,0.37359 0.194028,0 0.352778,-0.07 0.352778,-0.15557 z m 4.040552,28.11321 c 0.009,-0.53358 0.175143,-0.93116 0.36917,-0.8835 0.495124,0.12164 0.513072,1.85364 0.01921,1.85364 -0.222623,0 -0.397394,-0.43656 -0.388378,-0.97014 z m 1.61462,0.17639 c 0.0088,-0.65267 0.06852,-0.69497 0.335881,-0.23791 0.259509,0.44361 0.841012,0.5322 2.880328,0.43861 1.530042,-0.0702 2.663165,-0.29196 2.824345,-0.55274 0.148044,-0.23957 0.474257,-0.44192 0.724917,-0.44968 2.1862436,-0.0678 4.7830236,-1.22675 2.7488016,-1.22675 -0.391976,0 -0.705556,-0.2352 -0.705556,-0.52917 0,-0.56222 0.545278,-0.72111 0.839709,-0.24472 0.285001,0.46115 2.688069,0.041 2.688069,-0.47004 0,-0.25365 -0.198438,-0.52797 -0.440972,-0.60957 -0.343786,-0.11571 -0.334266,-0.2777 0.0432,-0.73497 0.31475,-0.38129 0.345611,-0.58653 0.08819,-0.58653 -0.217786,0 -0.395974,-0.17198 -0.395974,-0.38217 0,-0.21022 0.198438,-0.31104 0.440972,-0.22408 0.705818,0.25308 1.6756955,-0.41695 1.6756955,-1.15764 0,-0.78066 0.982611,-1.41111 2.199308,-1.41111 0.45902,0 1.025081,-0.1905 1.257914,-0.42334 0.232834,-0.23283 0.423334,-0.29277 0.423334,-0.1332 0,0.15959 0.240082,0.0909 0.533517,-0.15262 0.395662,-0.32836 0.433669,-0.5631 0.147092,-0.9084 -0.29437,-0.35468 -0.124434,-0.72171 0.713369,-1.54069 1.116779,-1.0917 1.781022,-1.36108 1.781022,-0.72231 0,0.19403 0.175734,0.35278 0.390521,0.35278 0.214787,0 0.299144,-0.23813 0.187461,-0.52917 -0.130234,-0.33937 0.0069,-0.52916 0.38246,-0.52916 0.503308,0 0.48937,-0.0777 -0.09927,-0.55319 -0.655499,-0.52956 -0.643294,-0.54434 0.285352,-0.34608 0.723477,0.15448 0.970138,0.0709 0.970138,-0.32872 0,-0.29474 0.15875,-0.5359 0.352778,-0.5359 0.194028,0 0.352778,0.14658 0.352778,0.32575 0,0.58184 1.905321,-0.62032 3.331475,-2.10199 0.922182,-0.95807 1.607601,-1.38874 2.03309,-1.27748 0.393971,0.10301 0.781156,-0.0924 1.002464,-0.50588 0.291376,-0.54444 0.239719,-0.67832 -0.269202,-0.69762 -0.514653,-0.0194 -0.484677,-0.0938 0.163979,-0.40668 0.436562,-0.21054 0.79375,-0.51731 0.79375,-0.68167 0,-0.1644 0.3175,-0.29888 0.705555,-0.29888 0.388056,0 0.705556,0.16814 0.705556,0.37359 0,0.2055 0.155497,0.2775 0.345553,0.16006 0.217992,-0.13473 0.188683,-0.46479 -0.07939,-0.89405 -0.354659,-0.56786 -0.309697,-0.7694 0.271808,-1.21835 0.687094,-0.53047 0.687327,-0.54522 0.01693,-1.06345 -0.373892,-0.28903 -0.594346,-0.61097 -0.489899,-0.7154 0.31884,-0.31884 2.056482,0.4903 2.274816,1.05926 0.256039,0.6672 0.833565,0.67648 2.073455,0.0332 0.531389,-0.27566 1.155284,-0.42866 1.386434,-0.33998 0.231154,0.0887 0.880033,-0.0772 1.441958,-0.36875 0.653408,-0.33902 1.100925,-0.40185 1.241524,-0.17435 0.14496,0.23453 0.728275,0.24148 1.712454,0.0205 1.362699,-0.30617 1.517128,-0.26909 1.774303,0.42612 0.355949,0.96221 0.579822,0.95653 1.272413,-0.0321 0.770075,-1.09943 1.474727,-0.9918 1.751323,0.26751 0.128199,0.58371 0.577377,1.23861 0.998167,1.45535 1.229579,0.63334 2.722432,2.41949 2.942706,3.52087 0.111993,0.55992 0.32451,1.01808 0.47226,1.01808 0.147754,0 0.350954,0.43656 0.45156,0.97014 0.100605,0.53357 0.433846,1.64048 0.740533,2.45977 0.380361,1.01615 0.458343,1.75077 0.245322,2.31105 -0.171761,0.45177 -0.233564,1.52771 -0.137333,2.39092 0.09623,0.86325 -0.01214,2.44263 -0.24082,3.50978 -0.228682,1.06716 -0.459924,2.33716 -0.513878,2.82223 -0.05395,0.48507 -0.219491,1.39788 -0.367862,2.02847 l -0.269773,1.14653 H 22.099075 -3.6096061 l 0.01073,-0.79375 z m 15.8642731,-7.34095 c 0,-0.1826 -0.238125,-0.33197 -0.529167,-0.33197 -0.545539,0 -0.700865,0.41628 -0.303572,0.81354 0.281845,0.28187 0.832739,-0.0367 0.832739,-0.48157 z m 4.233333,-3.50697 c 0,-0.19402 -0.07001,-0.35277 -0.155569,-0.35277 -0.08556,0 -0.253682,0.15875 -0.373597,0.35277 -0.119916,0.19403 -0.04991,0.35278 0.155569,0.35278 0.205478,0 0.373597,-0.15875 0.373597,-0.35278 z m 26.346541,-12.06059 c -0.112613,-0.28141 -0.196207,-0.19784 -0.213134,0.21315 -0.01531,0.37186 0.06806,0.58025 0.185286,0.46302 0.117225,-0.11723 0.129755,-0.4215 0.02783,-0.67617 z M 7.8901785,369.82268 c -0.424731,-0.42471 -0.192909,-0.75364 0.494677,-0.70181 0.388056,0.0293 0.705556,0.16111 0.705556,0.29308 0,0.33966 -0.946854,0.66213 -1.200233,0.40873 z m 0.246489,-1.65467 c 0.348567,-0.26437 0.957299,-0.39602 1.352739,-0.29263 0.9343365,0.24434 0.164333,0.78744 -1.104551,0.77908 -0.81955,-0.005 -0.837108,-0.0398 -0.248188,-0.48645 z m 3.2467995,-0.90805 c -0.129546,-0.20962 0.255717,-0.34272 0.949319,-0.32797 0.972685,0.0205 1.049692,0.0754 0.461793,0.32797 -0.957055,0.41127 -1.156939,0.41127 -1.411112,0 z m -7.3604561,-3.35389 c -0.635008,-0.63503 -0.731482,-1.09513 -0.287194,-1.36973 0.159417,-0.0985 0.5701006,0.1482 0.9126296,0.54822 0.790117,0.92279 0.222029,1.66895 -0.6254356,0.82151 z m 2.2451776,-3.70166 c 0,-0.19403 0.238125,-0.35278 0.529167,-0.35278 0.291042,0 0.529167,0.15875 0.529167,0.35278 0,0.19403 -0.238125,0.35278 -0.529167,0.35278 -0.291042,0 -0.529167,-0.15875 -0.529167,-0.35278 z m 7.9375015,-2.46945 c 0.119916,-0.19402 0.367409,-0.35277 0.549986,-0.35277 0.182577,0 0.331958,0.15875 0.331958,0.35277 0,0.19403 -0.247494,0.35278 -0.549986,0.35278 -0.302493,0 -0.451874,-0.15875 -0.331958,-0.35278 z m 1.146527,-0.9392 c 0.242535,-0.0979 0.63941,-0.0979 0.881945,0 0.242535,0.0979 0.0441,0.17794 -0.440972,0.17794 -0.48507,0 -0.683507,-0.0801 -0.440973,-0.17794 z m -18.9618051,-2.94135 c 0,-0.19403 0.238125,-0.35278 0.529166,-0.35278 0.291042,0 0.529167,0.15875 0.529167,0.35278 0,0.19403 -0.238125,0.35278 -0.529167,0.35278 -0.291041,0 -0.529166,-0.15875 -0.529166,-0.35278 z m 37.0416661,-1.36949 c 0,-0.19402 0.15875,-0.45088 0.352778,-0.57079 0.194028,-0.11991 0.352778,-0.0593 0.352778,0.13476 0,0.19403 -0.15875,0.45089 -0.352778,0.5708 -0.194028,0.11991 -0.352778,0.0593 -0.352778,-0.13477 z M 8.0320775,351.03219 c 0,-0.19403 0.15875,-0.35278 0.352778,-0.35278 0.194028,0 0.352778,0.15875 0.352778,0.35278 0,0.19402 -0.15875,0.35277 -0.352778,0.35277 -0.194028,0 -0.352778,-0.15875 -0.352778,-0.35277 z m -10.5709206,-2.79905 c -0.530126,-0.99053 -0.453874,-1.15379 0.340366,-0.72873 0.388055,0.20768 0.705555,0.61013 0.705555,0.89436 0,0.73646 -0.615292,0.63902 -1.045921,-0.16563 z m -4.00098,-4.48356 c 0.231635,-0.0942 0.333713,-0.39917 0.22684,-0.67768 -0.119158,-0.31052 0.02495,-0.50638 0.372596,-0.50638 0.331724,0 0.56691,0.2927 0.56691,0.70555 0,0.50476 -0.225902,0.69762 -0.79375,0.67773 -0.436563,-0.0152 -0.604231,-0.10496 -0.372596,-0.19922 z m -4.8254749,-0.93782 c 0.01121,-0.87736 0.610977,-1.38042 1.361667,-1.14216 1.0457609,0.3319 0.9346189,0.76239 -0.308735,1.19585 -0.792532,0.27626 -1.056977,0.26278 -1.052932,-0.0537 z M 155.16601,280.60543 c -0.59596,-0.75763 -0.73116,-1.43196 -0.73116,-3.6468 0,-2.46111 -0.1318,-2.98047 -1.39793,-5.50868 -1.93622,-3.86621 -5.32032,-16.51524 -6.92881,-25.89832 -0.97736,-5.70143 -1.16615,-6.88499 -1.32233,-8.29028 -0.41005,-3.68958 -1.47371,-8.84106 -2.58443,-12.51687 -2.36485,-7.82626 -10.69244,-22.93032 -12.14695,-22.03139 -0.46184,0.28544 -0.37234,3.04915 0.22201,6.8552 0.28784,1.84327 0.67326,4.38327 0.8565,5.64445 0.18324,1.26118 0.58455,8.32555 0.8918,15.69861 0.30725,7.37305 0.79262,15.94555 1.07859,19.05 0.28597,3.10444 0.51944,6.36293 0.5188,7.24107 -10e-4,1.53359 -0.0603,1.62413 -1.50044,2.29306 -1.45332,0.67506 -1.50472,0.75595 -1.6757,2.6367 -0.16301,1.79311 -0.24854,1.94861 -1.12774,2.05009 -1.34073,0.15476 -7.13056,-2.58908 -7.69713,-3.64772 -0.27749,-0.51849 -0.34968,-1.26748 -0.19251,-1.99724 0.5773,-2.68046 0.58692,-4.13125 0.0345,-5.19952 -0.52294,-1.01126 -0.63354,-3.85061 -0.16587,-4.25839 0.11127,-0.097 0.57112,-1.33615 1.02191,-2.75365 0.78136,-2.45699 0.8072,-2.86855 0.55379,-8.81944 -0.14619,-3.4332 -0.31589,-8.62343 -0.37711,-11.53385 -0.28396,-13.50112 -0.76274,-17.7411 -2.67881,-23.72266 -3.12802,-9.76505 -8.13286,-16.58368 -17.24047,-23.48853 -4.628418,-3.50899 -6.992218,-4.14974 -12.048942,-3.26607 -6.813879,1.19074 -8.691898,1.92867 -10.840459,4.25959 -2.124774,2.3051 -2.911768,4.1271 -3.112922,7.20683 -0.170395,2.60879 -0.118258,2.82692 2.114853,8.84834 4.340829,11.70471 9.636274,24.03749 14.693135,34.21944 3.991937,8.03775 8.466585,14.60685 14.734855,21.63183 l 1.91896,2.15062 -0.23921,2.87173 -0.23922,2.87172 1.62476,1.82939 c 0.89361,1.00616 1.62232,1.94314 1.61935,2.08219 -0.0219,1.02316 -1.71241,1.51148 -7.65894,2.2123 -4.59812,0.54192 -5.369298,0.0438 -6.443078,-4.16144 -0.23607,-0.92452 -1.085,-2.31912 -2.22136,-3.64923 -1.01161,-1.18407 -2.1738,-2.57444 -2.582649,-3.08973 -0.901792,-1.13654 -5.857984,-11.77439 -9.476278,-20.33965 -0.819644,-1.94028 -3.748303,-8.68716 -6.508129,-14.99306 -6.846616,-15.64377 -6.74974,-15.41869 -9.034142,-20.99028 -3.510685,-8.56247 -4.159006,-9.5524 -7.333893,-11.19824 -1.947475,-1.00956 -2.504222,-1.13208 -5.180577,-1.14005 -2.586659,-0.008 -3.277274,0.12791 -5.026999,0.98711 -2.266304,1.11288 -5.496084,3.89683 -6.607884,5.69576 -1.444861,2.33784 -3.165623,9.36607 -4.580438,18.7082 -0.826615,5.45822 -1.622948,16.09292 -2.113298,28.22222 -0.646476,15.9913 -0.721113,17.61435 -0.93369,20.30416 -0.198035,2.50576 -0.155949,2.73026 0.703294,3.75141 1.15642,1.37433 1.183407,1.642 0.607995,6.03044 -0.613477,4.67871 -0.840084,4.95554 -4.455283,5.44273 -1.54952,0.20882 -3.403671,0.39292 -4.120339,0.40912 -1.817892,0.0411 -2.949268,-1.09236 -3.229095,-3.23497 -0.119126,-0.91214 -0.692386,-2.61094 -1.273912,-3.77511 -1.4186,-2.83992 -1.410959,-4.64997 0.03214,-7.6104 0.677937,-1.39076 1.166195,-3.01753 1.262888,-4.20765 0.08671,-1.06716 0.21747,-14.32278 0.29059,-29.45695 0.07312,-15.13417 0.21336,-28.73578 0.311648,-30.2258 0.209028,-3.16887 1.230235,-5.9438 3.319737,-9.02073 1.973023,-2.90541 3.959091,-4.55223 8.104336,-6.71999 1.993325,-1.04242 4.00818,-2.38618 4.616175,-3.07864 2.363808,-2.69223 2.711492,-7.25893 0.913825,-12.00275 -2.750394,-7.25793 -3.382938,-10.64414 -2.685437,-14.37594 0.456463,-2.44217 1.221747,-4.11845 3.49528,-7.65607 1.989854,-3.09621 2.222458,-3.61939 1.865757,-4.19655 -0.145877,-0.23603 -1.917125,-0.7464 -3.936111,-1.13415 -2.018986,-0.38775 -4.827344,-0.9252 -6.240797,-1.19431 -5.315095,-1.01199 -8.574592,-3.40742 -10.708696,-7.8699 -1.441179,-3.01354 -1.590481,-5.09443 -0.68199,-9.50508 1.124017,-5.45702 3.354779,-11.14503 4.031985,-10.28078 0.05967,0.0761 0.837858,1.64659 1.729299,3.48985 0.891441,1.84327 2.389074,4.29836 3.328077,5.45576 2.287341,2.81934 6.014484,5.89833 8.685304,7.17494 1.200736,0.57392 4.016294,1.92693 6.256793,3.00667 7.23549,3.48694 13.232916,4.63258 20.046914,3.8294 2.935284,-0.34598 2.97638,-0.33972 6.526389,0.99364 4.092582,1.53716 8.976868,2.90037 13.184872,3.67993 3.867383,0.71645 13.734947,1.38641 16.937047,1.14995 4.04706,-0.29887 6.36533,-2.19646 5.68425,-4.65278 -0.25119,-0.90593 -0.91283,-1.38198 -4.59447,-3.30574 -5.69909,-2.97793 -8.611776,-4.83346 -13.987821,-8.91092 -3.929712,-2.9805 -8.643853,-7.43373 -11.344656,-10.71677 C 79.526282,108.58172 76.39744,103.48428 74.41359,99.321627 73.212403,96.801252 71.930306,94.1835 71.564472,93.504403 l -0.665159,-1.234722 -2.673311,-0.04933 C 65.861375,92.176711 65.419309,92.058786 64.397566,91.199045 62.663469,89.7399 62.00708,88.430121 62.00708,86.428992 c 0,-4.430123 3.300833,-7.300408 7.674762,-6.673698 2.70044,0.38693 4.639504,3.131538 4.19378,5.935994 -0.341528,2.148833 0.0018,2.350911 3.907747,2.300803 4.197887,-0.05385 6.659817,-0.712929 10.672798,-2.857165 5.314315,-2.839576 8.518467,-5.483211 14.486393,-11.952242 5.57047,-6.038191 12.17937,-9.355943 21.2849,-10.685283 l 3.92545,-0.573088 -0.0291,-1.231484 c -0.016,-0.677312 -0.30631,-2.18398 -0.64517,-3.348147 -0.33885,-1.164166 -0.70415,-3.880996 -0.81177,-6.037396 -0.17618,-3.530325 -0.10262,-4.245113 0.73877,-7.178358 1.30092,-4.535241 3.71684,-8.522748 6.95796,-11.484184 1.36644,-1.248526 9.09486,-7.362356 14.20949,-11.24089 0.99263,-0.752732 3.15416,-2.50729 4.8034,-3.89902 1.64923,-1.391726 3.2815,-2.638132 3.62726,-2.769792 0.86061,-0.32771 1.20628,0.701234 1.85541,5.522828 1.88736,14.019078 0.50905,25.495776 -4.46565,37.183865 -2.14333,5.035765 -1.63613,5.355453 3.76151,2.370889 4.24625,-2.347912 7.69496,-3.697034 12.1548,-4.754894 2.9912,-0.709503 3.92503,-0.77234 8.68882,-0.584652 5.2872,0.208309 11.46303,1.023991 17.59312,2.323642 7.94588,1.684616 8.626,1.87875 8.82963,2.520311 0.23645,0.744982 -1.2701,5.305189 -2.68413,8.124653 -3.79778,7.572474 -12.55758,14.949862 -20.30395,17.099704 -1.13813,0.315866 -3.89495,0.653845 -6.12627,0.751067 -3.37096,0.146879 -4.65345,0.04277 -7.58472,-0.61571 -1.94028,-0.435864 -3.96434,-0.868468 -4.49792,-0.961341 l -0.97014,-0.168857 v 7.627084 c 0,13.672379 -2.09805,22.626989 -6.63638,28.324399 -3.84084,4.8218 -11.16968,8.96475 -18.32264,10.35769 -1.71899,0.33475 -2.20486,0.56788 -2.20486,1.05793 0,0.3457 1.00877,2.98411 2.24173,5.86312 5.71449,13.34369 6.24852,15.20276 6.26651,21.81514 0.0177,6.5286 -0.88843,10.03378 -4.37906,16.93842 -2.4469,4.8401 -3.03278,7.52561 -2.40129,11.00687 0.78675,4.33718 2.19034,6.66149 6.93251,11.48002 2.33788,2.37552 4.76569,5.09134 5.39513,6.03514 3.94385,5.91348 5.54796,12.41508 6.40613,25.96467 0.42634,6.73143 1.12739,12.98673 1.97824,17.65126 0.87007,4.76995 3.29283,14.14021 4.10461,15.875 0.49589,1.05974 0.81374,2.64304 0.95608,4.7625 0.17246,2.568 0.4343,3.64712 1.36961,5.64445 0.63602,1.35819 1.64453,2.97492 2.24115,3.59272 0.59662,0.6178 1.00394,1.33216 0.90517,1.5875 -0.10753,0.27796 -1.64788,0.72196 -3.83903,1.10663 -2.01269,0.35331 -4.32505,0.78987 -5.13857,0.97014 -2.37884,0.52709 -3.16982,0.407 -3.96332,-0.6018 z M 78.665693,161.92391 c 0.449245,-0.2047 1.19192,-0.91961 1.650386,-1.5887 1.441154,-2.10322 0.500161,-5.26061 -1.936559,-6.49793 -1.548063,-0.78607 -4.254112,-0.60002 -5.279143,0.36294 -1.980304,1.8604 -1.959378,4.85903 0.04792,6.86633 1.070945,1.07095 1.453356,1.22952 2.965051,1.22952 0.954543,0 2.103096,-0.16747 2.552345,-0.37216 z m 16.046799,-4.78847 c 3.10822,-2.33442 0.99966,-7.89215 -2.994219,-7.89215 -3.169176,0 -4.867381,1.74213 -4.470477,4.58611 0.55959,4.00971 4.313876,5.67245 7.464696,3.30604 z M 69.426958,151.1776 c 2.099497,-1.08569 2.727618,-4.07315 1.304339,-6.20367 -2.579285,-3.86095 -7.855528,-2.73962 -8.28802,1.7614 -0.125828,1.30953 -0.01277,2.03407 0.420582,2.69546 1.360777,2.0768 4.374056,2.87881 6.563099,1.74681 z m 14.936163,-1.96167 c 1.970871,-1.55028 2.234911,-3.61904 0.760092,-5.9553 -1.641634,-2.60052 -4.910642,-3.10488 -6.944145,-1.07138 -1.916212,1.91621 -1.651007,4.69074 0.640701,6.70289 1.523961,1.33805 4.06522,1.48649 5.543352,0.32379 z M 179.05597,77.777484 c 3.45965,-0.709291 6.97165,-2.175485 8.88781,-3.710495 1.73762,-1.391984 3.67061,-4.036117 3.42277,-4.681986 -0.20529,-0.534966 -8.33539,-2.800837 -12.76642,-3.558022 -4.02853,-0.6884 -6.2278,-0.685489 -9.60803,0.0127 -3.40683,0.703704 -14.38086,5.138999 -14.38086,5.812212 0,0.510963 7.05416,3.846432 11.1125,5.254403 4.34554,1.50761 8.80621,1.799086 13.33223,0.871174 z M 98.695972,-57.682297 c -1.84327,-0.24892 -4.38327,-0.56402 -5.644449,-0.70023 -1.261181,-0.1362 -2.451806,-0.36888 -2.645834,-0.51707 -0.194027,-0.14818 -0.987777,-0.35387 -1.763889,-0.45708 -2.944152,-0.39153 -3.482248,-0.56052 -6.879166,-2.1604 -2.678342,-1.26144 -4.636365,-2.37994 -5.446381,-3.11116 -0.376135,-0.33955 -0.840744,-0.61737 -1.032468,-0.61737 -0.481951,0 -5.481302,-3.34685 -6.890748,-4.61306 -0.340462,-0.30586 -0.845023,-0.64658 -1.121241,-0.75715 -0.276221,-0.11057 -1.199645,-0.73344 -2.052059,-1.38416 -0.852413,-0.65072 -1.884288,-1.37922 -2.293055,-1.6189 -0.592808,-0.34758 7.75251,-0.43667 41.237338,-0.44021 l 41.98055,-0.004 -2.11666,1.10108 c -1.16417,0.60559 -2.62202,1.47838 -3.23966,1.93952 -0.61764,0.46115 -1.24241,0.83845 -1.38838,0.83845 -0.14596,0 -0.59311,0.30622 -0.99367,0.6805 -0.40056,0.37428 -1.68079,1.17998 -2.84496,1.79045 -1.16417,0.61046 -2.35479,1.31902 -2.64583,1.57457 -0.29105,0.25556 -1.79917,1.05956 -3.35139,1.78668 -1.55223,0.72711 -3.22494,1.60404 -3.71716,1.94871 -1.20905,0.84666 -4.60179,2.05698 -7.39534,2.6382 -1.26118,0.2624 -3.75717,0.79656 -5.54664,1.18702 -1.78948,0.39046 -4.48823,0.80418 -5.99722,0.91939 -1.509,0.1152 -3.21989,0.25891 -3.80197,0.31935 -0.58209,0.0604 -2.56646,-0.0938 -4.409718,-0.34268 z m 28.839568,-11.88707 c 1.92936,-0.89155 1.96061,-1.48462 0.0622,-1.18106 -0.94388,0.15093 -1.36049,0.10587 -1.21391,-0.1313 0.25397,-0.41092 -0.007,-0.44268 -1.14138,-0.13875 -0.46688,0.12512 -0.79375,0.48632 -0.79375,0.87713 0,0.36543 -0.15875,0.66441 -0.35278,0.66441 -0.19403,0 -0.35278,0.23416 -0.35278,0.52035 0,0.65386 1.62041,0.39288 3.79236,-0.61078 z"
       id="path467" />
  </g>
</svg>
